<?xml version="1.0" encoding="UTF-8"?>
<svg version="1.1" xmlns="http://www.w3.org/2000/svg" width="512" height="512">
<path d="M0 0 C3.22248308 0.96210408 5.51475807 2.38789962 8.31396484 4.25512695 C9.12492615 4.79098923 9.12492615 4.79098923 9.95227051 5.337677 C11.75227388 6.5294312 13.54464815 7.73218867 15.33740234 8.93481445 C16.6244446 9.78949256 17.91205608 10.64331401 19.20019531 11.49633789 C21.9500562 13.31842116 24.69728346 15.14438493 27.44287109 16.97290039 C33.82610395 21.21974454 40.24011554 25.41973611 46.65081787 29.62493896 C50.35253509 32.05407141 54.05191475 34.48675831 57.75146484 36.91918945 C59.247874 37.9029288 60.74429327 38.88665276 62.24072266 39.87036133 C62.98036255 40.35657959 63.72000244 40.84279785 64.48205566 41.34375 C70.33154125 45.18876789 76.18170933 49.03274742 82.0317688 52.87689209 C85.67143008 55.26856035 89.31106208 57.66027317 92.95068359 60.05200195 C93.67196945 60.52598419 94.39325531 60.99996643 95.13639832 61.48831177 C101.01938249 65.354281 106.90206617 69.22070732 112.78471375 73.08718872 C118.58241361 76.89774422 124.38067575 80.70744342 130.17915344 84.51681519 C134.66934367 87.46687312 139.15860425 90.41834055 143.64732361 93.37063599 C146.64104499 95.3393658 149.63535277 97.30720243 152.62979126 99.27484131 C154.05011137 100.20841218 155.47017931 101.14236683 156.88998413 102.07672119 C158.84185244 103.36115022 160.79459688 104.64423627 162.74755859 105.92700195 C163.32597504 106.3081012 163.90439148 106.68920044 164.50033569 107.08184814 C168.88343947 109.95763153 171.34941128 111.44075458 176.71240234 110.80981445 C180.15007695 108.34365658 181.46568249 106.70857963 182.58740234 102.62231445 C181.20374915 96.5935398 177.02042331 93.06790802 172.71240234 88.80981445 C171.95443359 88.05055664 171.19646484 87.29129883 170.41552734 86.5090332 C169.85349609 85.94829102 169.29146484 85.38754883 168.71240234 84.80981445 C170.18961656 81.35779806 172.15034235 79.16019509 174.83740234 76.55981445 C175.56185547 75.8534082 176.28630859 75.14700195 177.03271484 74.41918945 C177.86416016 73.62254883 177.86416016 73.62254883 178.71240234 72.80981445 C182.74322234 74.42214245 185.47184371 77.27216041 188.46240234 80.30981445 C188.96900391 80.80868164 189.47560547 81.30754883 189.99755859 81.8215332 C193.71240234 85.55640306 193.71240234 85.55640306 193.71240234 87.80981445 C194.37240234 87.80981445 195.03240234 87.80981445 195.71240234 87.80981445 C195.83511505 87.07797943 195.95782776 86.34614441 196.08425903 85.59213257 C196.69623055 82.88144632 197.53459206 80.77554328 198.76269531 78.29272461 C199.18759247 77.42636383 199.61248962 76.56000305 200.05026245 75.66738892 C200.51369049 74.73727997 200.97711853 73.80717102 201.45458984 72.84887695 C201.93759552 71.86728607 202.4206012 70.88569519 202.91824341 69.87435913 C204.46914071 66.72510174 206.02792909 63.57983265 207.58740234 60.43481445 C209.60782673 56.34475021 211.62515086 52.25316088 213.64208984 48.16137695 C214.14296616 47.14638626 214.64384247 46.13139557 215.15989685 45.08564758 C222.54746209 30.09123435 229.76712229 15.01434646 236.71240234 -0.19018555 C241.99240234 -0.19018555 247.27240234 -0.19018555 252.71240234 -0.19018555 C253.38142578 1.20844727 254.05044922 2.60708008 254.73974609 4.0480957 C261.19492065 17.52704126 267.70106794 30.98030264 274.23699951 44.42022705 C281.09928291 58.53230831 287.91896888 72.66446014 294.71240234 86.80981445 C298.66614421 83.47864831 302.52282091 80.12552889 306.14990234 76.43481445 C307.16890625 75.40227539 307.16890625 75.40227539 308.20849609 74.34887695 C308.95292969 73.58704102 308.95292969 73.58704102 309.71240234 72.80981445 C312.0628382 74.79051883 314.39063039 76.79562767 316.71240234 78.80981445 C317.94990234 79.86168945 317.94990234 79.86168945 319.21240234 80.93481445 C320.71240234 82.80981445 320.71240234 82.80981445 320.64990234 84.57543945 C319.26169073 87.88401047 316.77820714 90.0176583 314.21240234 92.43481445 C309.4065826 96.72654035 309.4065826 96.72654035 307.33740234 102.62231445 C307.46949999 105.96085313 307.46949999 105.96085313 309.77490234 108.68481445 C313.47912513 111.36446498 315.21129402 111.22832074 319.71240234 110.80981445 C322.69802618 109.48116259 322.69802618 109.48116259 325.50927734 107.4621582 C326.3159938 106.92417351 326.3159938 106.92417351 327.13900757 106.37532043 C328.9237123 105.18047252 330.69245819 103.96389689 332.46240234 102.74731445 C333.73972736 101.88719373 335.01824127 101.02883633 336.29785156 100.17211914 C339.02810091 98.34226984 341.75311185 96.50495855 344.47509766 94.6628418 C350.82420645 90.37593849 357.23953457 86.18982499 363.64880371 81.99368286 C367.35264556 79.56709731 371.05183872 77.13344543 374.75146484 74.70043945 C376.24786319 73.71668366 377.74428246 72.7329597 379.24072266 71.74926758 C379.98036255 71.26304932 380.72000244 70.77683105 381.48205566 70.27587891 C387.33126542 66.43104233 393.18116013 62.58724789 399.03094482 58.74328613 C402.67479931 56.34884931 406.31859797 53.95432754 409.96240234 51.55981445 C411.42073541 50.60148071 412.87906874 49.64314738 414.33740234 48.68481445 C415.42021484 47.97325195 415.42021484 47.97325195 416.52490234 47.24731445 C423.08740234 42.93481445 423.08740234 42.93481445 425.27442932 41.49768066 C426.73440715 40.53822972 428.19431711 39.57867549 429.65415955 38.61901855 C433.27428588 36.23943796 436.89553036 33.86159775 440.51928711 31.48754883 C447.39069554 26.98316025 454.24825921 22.46054581 461.07003784 17.88122559 C464.31069269 15.7072692 467.5574232 13.5424853 470.8046875 11.37841797 C472.35838449 10.33922339 473.90905576 9.29548962 475.45654297 8.24707031 C477.59563714 6.79823964 479.74444003 5.36504728 481.89599609 3.93481445 C482.52972641 3.49963501 483.16345673 3.06445557 483.81639099 2.61608887 C488.13644815 -0.22481648 488.13644815 -0.22481648 491.00244141 -0.05249023 C493.39877381 1.1559401 495.10265338 2.69027798 497.02490234 4.55981445 C498.10191406 5.57301758 498.10191406 5.57301758 499.20068359 6.60668945 C500.71240234 8.80981445 500.71240234 8.80981445 500.5222168 11.09741211 C499.56011271 14.31989519 498.13431718 16.61217018 496.26708984 19.41137695 C495.90984833 19.95201782 495.55260681 20.49265869 495.18453979 21.04968262 C493.9927856 22.84968599 492.79002812 24.64206026 491.58740234 26.43481445 C490.73272424 27.72185671 489.87890279 29.00946819 489.02587891 30.29760742 C487.20379564 33.04746831 485.37783187 35.79469557 483.54931641 38.5402832 C479.30247225 44.92351606 475.10248068 51.33752764 470.89727783 57.74822998 C468.46814538 61.44994719 466.03545848 65.14932686 463.60302734 68.84887695 C462.61928799 70.34528611 461.63556403 71.84170537 460.65185547 73.33813477 C459.92252808 74.4475946 459.92252808 74.4475946 459.1784668 75.57946777 C455.3334489 81.42895336 451.48946937 87.27912143 447.64532471 93.12918091 C445.25365644 96.76884219 442.86194362 100.40847419 440.47021484 104.0480957 C439.9962326 104.76938156 439.52225037 105.49066742 439.03390503 106.23381042 C435.16793579 112.1167946 431.30150947 117.99947828 427.43502808 123.88212585 C423.62447258 129.67982572 419.81477338 135.47808786 416.00540161 141.27656555 C413.05534367 145.76675578 410.10387625 150.25601636 407.15158081 154.74473572 C405.18285099 157.7384571 403.21501437 160.73276488 401.24737549 163.72720337 C400.31380462 165.14752348 399.37984997 166.56759142 398.44549561 167.98739624 C397.16106658 169.93926455 395.87798052 171.89200899 394.59521484 173.8449707 C394.2141156 174.42338715 393.83301636 175.00180359 393.44036865 175.5977478 C390.56458527 179.98085158 389.08146222 182.44682339 389.71240234 187.80981445 C392.17856022 191.24748906 393.81363717 192.5630946 397.89990234 193.68481445 C403.92867699 192.30116126 407.45430877 188.11783542 411.71240234 183.80981445 C412.47166016 183.0518457 413.23091797 182.29387695 414.01318359 181.51293945 C414.57392578 180.9509082 415.13466797 180.38887695 415.71240234 179.80981445 C419.16441873 181.28702867 421.36202171 183.24775446 423.96240234 185.93481445 C425.02201172 187.02149414 425.02201172 187.02149414 426.10302734 188.13012695 C426.63412109 188.68442383 427.16521484 189.2387207 427.71240234 189.80981445 C426.05376729 194.13486281 422.84136135 196.90400271 419.58740234 200.05981445 C419.02408203 200.61411133 418.46076172 201.1684082 417.88037109 201.73950195 C416.49554207 203.1008593 415.1045703 204.45596304 413.71240234 205.80981445 C432.73876097 215.08472375 451.76678107 224.35297399 470.87597656 233.45629883 C476.43001242 236.10663234 481.97712669 238.77140864 487.52490234 241.43481445 C488.61254883 241.95672363 489.70019531 242.47863281 490.82080078 243.01635742 C491.82272461 243.49733887 492.82464844 243.97832031 493.85693359 244.47387695 C494.74743408 244.9013623 495.63793457 245.32884766 496.55541992 245.76928711 C497.94570507 246.43996004 499.33176627 247.11949642 500.71240234 247.80981445 C500.71240234 252.75981445 500.71240234 257.70981445 500.71240234 262.80981445 C494.44071738 265.88537091 488.16829682 268.95942085 481.89526367 272.03222656 C479.77267751 273.07220277 477.6502741 274.11255209 475.52807617 275.15332031 C455.00679207 285.21678277 434.40993464 295.11392348 413.71240234 304.80981445 C413.49654096 306.88657304 413.49654096 306.88657304 414.99755859 308.32202148 C415.58408203 308.89807129 416.17060547 309.47412109 416.77490234 310.06762695 C417.72236328 311.00541992 417.72236328 311.00541992 418.68896484 311.9621582 C419.35669922 312.61313477 420.02443359 313.26411133 420.71240234 313.93481445 C421.38013672 314.59352539 422.04787109 315.25223633 422.73583984 315.9309082 C424.39032483 317.56175769 426.0492885 319.18777295 427.71240234 320.80981445 C427.30393066 321.28612305 426.89545898 321.76243164 426.47460938 322.25317383 C425.93690918 322.88030273 425.39920898 323.50743164 424.84521484 324.15356445 C424.31299316 324.77424805 423.78077148 325.39493164 423.23242188 326.03442383 C422.01445034 327.45702084 420.80029359 328.88288357 419.58740234 330.30981445 C417.71240234 331.80981445 417.71240234 331.80981445 415.94677734 331.74731445 C412.63820633 330.35910284 410.50455849 327.87561924 408.08740234 325.30981445 C403.79567644 320.50399471 403.79567644 320.50399471 397.89990234 318.43481445 C394.56136367 318.5669121 394.56136367 318.5669121 391.83740234 320.87231445 C389.14650768 324.59208061 389.26313198 326.28563516 389.71240234 330.80981445 C391.23517313 334.09032954 391.23517313 334.09032954 393.49755859 337.26293945 C393.90160416 337.86878876 394.30564972 338.47463806 394.72193909 339.09884644 C396.05846996 341.09599347 397.41665382 343.07738891 398.77490234 345.05981445 C399.71527081 346.45823006 400.65387958 347.85783042 401.59082031 349.25854492 C403.57875022 352.22726221 405.57429774 355.19064336 407.57519531 358.15063477 C412.37839402 365.26847626 417.09603103 372.44278769 421.81246948 379.61828613 C423.31539441 381.90138216 424.824058 384.18059672 426.33374023 386.45922852 C427.26480779 387.87025619 428.19572368 389.28138396 429.12646484 390.69262695 C429.54746964 391.3257077 429.96847443 391.95878845 430.40223694 392.61105347 C432.78342496 396.23331838 434.85305503 399.89433578 436.71240234 403.80981445 C432.96240234 406.80981445 432.96240234 406.80981445 430.71240234 406.80981445 C431.80338032 408.6510266 432.91059485 410.48262701 434.02490234 412.30981445 C434.63978516 413.33075195 435.25466797 414.35168945 435.88818359 415.40356445 C436.49017578 416.19762695 437.09216797 416.99168945 437.71240234 417.80981445 C440.9163565 417.80981445 442.80639973 417.06646423 445.71240234 415.80981445 C446.71424561 417.36236938 446.71424561 417.36236938 447.73632812 418.94628906 C453.84196791 428.40009054 459.98773934 437.82624423 466.17578125 447.22628784 C467.63393229 449.44305192 469.08944449 451.66153055 470.54443359 453.88037109 C475.12701929 460.86485899 479.72156185 467.83998075 484.37918091 474.7747345 C486.35885949 477.72413425 488.3295175 480.67950393 490.29937744 483.63546753 C491.23729986 485.03724648 492.17977484 486.43599059 493.12689209 487.83157349 C494.43763595 489.7635714 495.73274187 491.70520163 497.02490234 493.6496582 C497.41638458 494.21784271 497.80786682 494.78602722 498.21121216 495.37142944 C500.75391656 499.2440912 500.75391656 499.2440912 500.54736328 502.05883789 C499.38150013 504.50374156 497.84836279 506.18317843 495.96240234 508.12231445 C494.94919922 509.19932617 494.94919922 509.19932617 493.91552734 510.2980957 C491.71240234 511.80981445 491.71240234 511.80981445 489.41821289 511.61523438 C486.23484085 510.66766203 483.98074396 509.27886901 481.21630859 507.43481445 C480.12044434 506.71003906 479.02458008 505.98526367 477.89550781 505.23852539 C476.68860475 504.42900663 475.48173747 503.6194345 474.27490234 502.80981445 C472.99567007 501.96034845 471.71586943 501.11173785 470.43554688 500.26391602 C467.66269584 498.42659463 464.89255273 496.5852816 462.12402344 494.74145508 C455.26446651 490.1774681 448.37376164 485.66074485 441.48757935 481.13708496 C437.44130006 478.47808232 433.39728485 475.81564068 429.35302734 473.15356445 C407.78793497 458.96093971 386.21112766 444.78608701 364.62451172 430.6262207 C358.39990678 426.54303897 352.1763318 422.45831567 345.95628357 418.36819458 C342.97026586 416.40477203 339.98373157 414.442136 336.99716187 412.47955322 C335.56658546 411.53915001 334.13626378 410.59835916 332.70620728 409.65716553 C330.73235145 408.35811105 328.75763035 407.06038214 326.78271484 405.76293945 C325.90079216 405.18175858 325.90079216 405.18175858 325.00105286 404.58883667 C320.58759147 401.6923079 318.11139086 400.17463933 312.71240234 400.80981445 C309.27472773 403.27597232 307.95912219 404.91104928 306.83740234 408.99731445 C308.22105554 415.0260891 312.40438138 418.55172088 316.71240234 422.80981445 C317.84935547 423.94870117 317.84935547 423.94870117 319.00927734 425.1105957 C319.57130859 425.67133789 320.13333984 426.23208008 320.71240234 426.80981445 C319.23518812 430.26183084 317.27446234 432.45943382 314.58740234 435.05981445 C313.86294922 435.7662207 313.13849609 436.47262695 312.39208984 437.20043945 C311.83779297 437.7315332 311.28349609 438.26262695 310.71240234 438.80981445 C306.68732846 437.2036092 303.99450716 434.35415104 301.02490234 431.30981445 C300.52667969 430.81094727 300.02845703 430.31208008 299.51513672 429.7980957 C295.85323124 426.09147225 295.85323124 426.09147225 294.71240234 423.80981445 C287.88071585 437.35623732 281.16430203 450.94784027 274.64990234 464.6496582 C272.47928244 469.21261992 270.28882955 473.76557539 268.08740234 478.3137207 C267.77636566 478.95653488 267.46532898 479.59934906 267.14486694 480.26164246 C265.91196037 482.8090547 264.67879957 485.3563395 263.44317627 487.9024353 C259.7596985 495.49308851 256.17155293 503.11417606 252.71240234 510.80981445 C247.43240234 510.80981445 242.15240234 510.80981445 236.71240234 510.80981445 C236.11556641 509.55555664 235.51873047 508.30129883 234.90380859 507.0090332 C229.45814909 495.58496329 223.96333936 484.18581669 218.42889404 472.80456543 C217.3362778 470.55750173 216.24421678 468.31016906 215.15234375 466.06274414 C214.79231262 465.32170441 214.43228149 464.58066467 214.06134033 463.81716919 C213.33830883 462.32895337 212.61528633 460.84073317 211.89227295 459.35250854 C210.15619222 455.77946498 208.419133 452.20690489 206.6796875 448.63549805 C204.83208863 444.84153218 202.99073016 441.04457016 201.14990234 437.24731445 C200.5957666 436.11197266 200.04163086 434.97663086 199.47070312 433.80688477 C198.9716748 432.7753125 198.47264648 431.74374023 197.95849609 430.6809082 C197.52206787 429.78299561 197.08563965 428.88508301 196.63598633 427.95996094 C195.71240234 425.80981445 195.71240234 425.80981445 195.71240234 423.80981445 C190.11930474 428.56989752 184.84362379 433.55577121 179.71240234 438.80981445 C177.36196649 436.82911008 175.0341743 434.82400124 172.71240234 432.80981445 C171.88740234 432.10856445 171.06240234 431.40731445 170.21240234 430.68481445 C168.71240234 428.80981445 168.71240234 428.80981445 168.77490234 427.04418945 C170.16311396 423.73561844 172.64659755 421.6019706 175.21240234 419.18481445 C180.01822209 414.89308855 180.01822209 414.89308855 182.08740234 408.99731445 C181.9553047 405.65877578 181.9553047 405.65877578 179.64990234 402.93481445 C175.93013619 400.24391979 174.23658164 400.36054409 169.71240234 400.80981445 C166.43188726 402.33258524 166.43188726 402.33258524 163.25927734 404.5949707 C162.65474228 404.99810989 162.05020721 405.40124908 161.42735291 405.81660461 C159.42883435 407.15398769 157.44614336 408.51312988 155.46240234 409.87231445 C154.04273436 410.82731261 152.62189156 411.78056636 151.19995117 412.73217773 C148.21015144 414.73498605 145.22553634 416.74520297 142.24414062 418.76049805 C135.72827546 423.15604791 129.1497694 427.45578523 122.57385254 431.76071167 C118.90227716 434.1658729 115.23530729 436.57803602 111.56787109 438.98950195 C110.09051599 439.96056285 108.61313969 440.9315915 107.13574219 441.90258789 C106.40498474 442.38288452 105.67422729 442.86318115 104.92132568 443.35803223 C97.6240834 448.1540369 90.32635537 452.94930251 83.02874756 457.74475098 C80.84386833 459.18049561 78.65899311 460.61624635 76.47412109 462.05200195 C75.75285034 462.52597412 75.03157959 462.99994629 74.28845215 463.48828125 C70.62190142 465.89773471 66.9554211 468.30729522 63.2890625 470.71704102 C62.55788712 471.19759949 61.82671173 471.67815796 61.07337952 472.17327881 C59.59564578 473.14457869 58.11797448 474.11597356 56.6403656 475.08746338 C52.9933939 477.48502985 49.34528677 479.88082896 45.69458008 482.27270508 C39.0527566 486.62656643 32.42180117 490.99426106 25.82905579 495.42221069 C22.85852113 497.41600886 19.88198787 499.4007441 16.90487671 501.38470459 C15.49540258 502.32774668 14.08894861 503.27531992 12.68569946 504.2276001 C10.75534316 505.53723639 8.81536834 506.8312539 6.87255859 508.12231445 C6.30446472 508.51373627 5.73637085 508.90515808 5.15106201 509.30844116 C1.27813097 511.85132906 1.27813097 511.85132906 -1.53662109 511.64477539 C-3.98152476 510.47891224 -5.66096163 508.9457749 -7.60009766 507.05981445 C-8.31810547 506.3843457 -9.03611328 505.70887695 -9.77587891 505.01293945 C-11.28759766 502.80981445 -11.28759766 502.80981445 -11.09741211 500.5222168 C-10.13530803 497.29973372 -8.70951249 495.00745873 -6.84228516 492.20825195 C-6.48504364 491.66761108 -6.12780212 491.12697021 -5.75973511 490.56994629 C-4.56798091 488.76994291 -3.36522344 486.97756864 -2.16259766 485.18481445 C-1.30791955 483.8977722 -0.4540981 482.61016072 0.39892578 481.32202148 C2.22100905 478.57216059 4.04697282 475.82493334 5.87548828 473.0793457 C10.12233244 466.69611285 14.322324 460.28210126 18.52752686 453.87139893 C20.9566593 450.16968171 23.3893462 446.47030204 25.82177734 442.77075195 C26.80551669 441.2743428 27.78924066 439.77792353 28.77294922 438.28149414 C29.50227661 437.1720343 29.50227661 437.1720343 30.24633789 436.04016113 C34.09135578 430.19067554 37.93533531 424.34050747 41.77947998 418.490448 C44.17114824 414.85078672 46.56286106 411.21115472 48.95458984 407.5715332 C49.42857208 406.85024734 49.90255432 406.12896149 50.39089966 405.38581848 C54.25686889 399.50283431 58.12329521 393.62015062 61.98977661 387.73750305 C65.80033211 381.93980318 69.61003131 376.14154105 73.41940308 370.34306335 C76.36946101 365.85287313 79.32092844 361.36361255 82.27322388 356.87489319 C84.24195369 353.8811718 86.20979032 350.88686403 88.1774292 347.89242554 C89.11100007 346.47210542 90.04495472 345.05203748 90.97930908 343.63223267 C92.26373811 341.68036436 93.54682416 339.72761991 94.82958984 337.7746582 C95.21068909 337.19624176 95.59178833 336.61782532 95.98443604 336.0218811 C98.86021942 331.63877733 100.34334247 329.17280551 99.71240234 323.80981445 C97.24624447 320.37213984 95.61116752 319.0565343 91.52490234 317.93481445 C85.4961277 319.31846765 81.97049591 323.50179349 77.71240234 327.80981445 C76.95314453 328.5677832 76.19388672 329.32575195 75.41162109 330.10668945 C74.85087891 330.6687207 74.29013672 331.23075195 73.71240234 331.80981445 C70.26038595 330.33260023 68.06278298 328.37187445 65.46240234 325.68481445 C64.75599609 324.96036133 64.04958984 324.2359082 63.32177734 323.48950195 C62.79068359 322.93520508 62.25958984 322.3809082 61.71240234 321.80981445 C63.3186076 317.78474057 66.16806575 315.09191927 69.21240234 312.12231445 C69.96070312 311.37498047 69.96070312 311.37498047 70.72412109 310.61254883 C74.43074455 306.95064335 74.43074455 306.95064335 76.71240234 305.80981445 C75.81263672 305.35993164 74.91287109 304.91004883 73.98583984 304.4465332 C73.37796631 304.14255615 72.77009277 303.8385791 72.14379883 303.52539062 C70.7397941 302.8234716 69.33565399 302.12182334 67.93139648 301.42041016 C63.804473 299.35849144 59.68032694 297.29125301 55.56005859 295.21606445 C43.40716553 289.10353121 31.17799241 283.17187859 18.89404297 277.32788086 C12.84647258 274.44238418 6.81123791 271.5312212 0.77490234 268.62231445 C-0.43562319 268.03913336 -1.64615365 267.45596251 -2.85668945 266.87280273 C-5.66712075 265.51874011 -8.47737899 264.16431832 -11.28759766 262.80981445 C-11.28759766 257.85981445 -11.28759766 252.90981445 -11.28759766 247.80981445 C-4.73110681 244.59179316 1.82614461 241.37532815 8.3840332 238.16015625 C10.6036317 237.07169161 12.82304024 235.98283953 15.04223633 234.89355469 C35.17659176 225.0112424 55.35772158 215.23149133 75.71240234 205.80981445 C71.30396798 200.51969321 66.63680441 195.62173017 61.71240234 190.80981445 C63.69310672 188.4593786 65.69821556 186.13158641 67.71240234 183.80981445 C68.41365234 182.98481445 69.11490234 182.15981445 69.83740234 181.30981445 C71.71240234 179.80981445 71.71240234 179.80981445 73.47802734 179.87231445 C76.78659836 181.26052607 78.92024619 183.74400966 81.33740234 186.30981445 C85.62912824 191.11563419 85.62912824 191.11563419 91.52490234 193.18481445 C94.86344102 193.05271681 94.86344102 193.05271681 97.58740234 190.74731445 C100.27829701 187.0275483 100.16167271 185.33399375 99.71240234 180.80981445 C98.18963156 177.52929937 98.18963156 177.52929937 95.92724609 174.35668945 C95.5236084 173.75138397 95.1199707 173.14607849 94.70410156 172.52243042 C93.36726039 170.52465947 92.00868258 168.54271364 90.64990234 166.55981445 C89.70297731 165.15258692 88.75777776 163.74419695 87.81420898 162.3347168 C85.81930257 159.35747437 83.81698777 156.38540927 81.81005859 153.41625977 C77.18129346 146.55227679 72.65944678 139.61807644 68.12677002 132.69046021 C60.0506953 120.35573048 51.92727025 108.05261759 43.71240234 95.80981445 C45.46240234 91.93481445 45.46240234 91.93481445 47.71240234 90.80981445 C47.08846583 87.04861969 45.3646652 84.62021403 43.14990234 81.55981445 C42.50923828 80.6677832 41.86857422 79.77575195 41.20849609 78.85668945 C40.71478516 78.1812207 40.22107422 77.50575195 39.71240234 76.80981445 C37.73240234 77.79981445 35.75240234 78.78981445 33.71240234 79.80981445 C27.98494522 71.24609555 22.26922554 62.67468705 16.56587219 54.09489441 C13.30418441 49.19143271 10.02714872 44.29864027 6.73918152 39.4127655 C4.59347313 36.2193267 2.45826626 33.01895762 0.32522583 29.81704712 C-0.70766624 28.27154162 -1.74504319 26.72902398 -2.78689575 25.18954468 C-4.24550412 23.03280397 -5.68809783 20.86616045 -7.12744141 18.6965332 C-7.565914 18.05627197 -8.0043866 17.41601074 -8.45614624 16.75634766 C-11.32171689 12.38756683 -11.32171689 12.38756683 -11.15209961 9.51538086 C-9.93987424 7.12379474 -8.40545112 5.41783296 -6.53759766 3.49731445 C-5.86212891 2.77930664 -5.18666016 2.06129883 -4.49072266 1.3215332 C-2.28759766 -0.19018555 -2.28759766 -0.19018555 0 0 Z " fill="#020200" transform="translate(11.28759765625,0.190185546875)"/>
<path d="M0 0 C19.14 0 38.28 0 58 0 C62.5 14.625 62.5 14.625 63 20 C62.26136719 20.27972656 61.52273437 20.55945313 60.76171875 20.84765625 C47.71999288 26.00137511 37.87908327 33.25947329 28 43 C27.25621094 43.73089844 26.51242188 44.46179688 25.74609375 45.21484375 C10.2146295 61.53655862 5.0305132 82.2854529 3 104 C7.95 104 12.9 104 18 104 C18.0825 101.6075 18.165 99.215 18.25 96.75 C18.65143405 88.66326032 20.35302957 81.29394086 24 74 C44.13 74 64.26 74 85 74 C85 89.18 85 104.36 85 120 C82.69 120 80.38 120 78 120 C78 124.95 78 129.9 78 135 C87.9 135 97.8 135 108 135 C108 130.05 108 125.1 108 120 C105.69 120 103.38 120 101 120 C101 105.15 101 90.3 101 75 C121.13 75 141.26 75 162 75 C168.88359673 91.06172571 171.48358913 111.33535324 165 128 C164.64808594 128.969375 164.29617188 129.93875 163.93359375 130.9375 C156.45211891 150.29550751 142.84864394 163.93163898 124.08007812 172.57128906 C105.17590103 180.71448305 83.43190989 181.9723838 64 175 C44.34257234 166.51256479 31.13425966 151.46180958 23 132 C21.49681086 127.69115516 20.22252417 123.401087 19 119 C14.38 119.33 9.76 119.66 5 120 C9.22374366 142.27064838 20.53682281 163.08110797 39.29296875 176.41796875 C46.80142816 181.49932392 54.65071609 185.4633432 63 189 C62.734759 190.43854237 62.46233523 191.87575975 62.1875 193.3125 C61.96126953 194.51326172 61.96126953 194.51326172 61.73046875 195.73828125 C60.65660263 200.5333519 59.29291864 205.25929832 58 210 C38.86 210 19.72 210 0 210 C1.11945392 201.0443686 1.11945392 201.0443686 2.19140625 197.30078125 C6.29781251 182.39467477 8.49815987 170.34114073 1 156 C-4.73418593 146.97488996 -13.68031284 138.94803686 -24.36791992 136.44555664 C-26.88984046 136.01864773 -29.30971568 135.79891607 -31.86328125 135.68359375 C-32.74951172 135.64169922 -33.63574219 135.59980469 -34.54882812 135.55664062 C-35.46083984 135.51732422 -36.37285156 135.47800781 -37.3125 135.4375 C-38.70952148 135.37272461 -38.70952148 135.37272461 -40.13476562 135.30664062 C-42.42304454 135.20102775 -44.71142372 135.09892248 -47 135 C-50.88761129 116.25615987 -53.18364277 93.5509283 -47 75 C-45.91203125 74.96261719 -44.8240625 74.92523438 -43.703125 74.88671875 C-28.37975043 74.2516708 -14.86255603 72.40515126 -3.6875 60.875 C4.00783221 51.71537381 6.99113821 40.30877973 6.30029297 28.55175781 C5.32827278 20.29195703 2.78400996 12.18380489 0.55078125 4.19213867 C0 2 0 2 0 0 Z " fill="#FAAC41" transform="translate(163,151)"/>
<path d="M0 0 C19.14 0 38.28 0 58 0 C62.5 14.625 62.5 14.625 63 20 C62.26136719 20.27972656 61.52273437 20.55945313 60.76171875 20.84765625 C47.71999288 26.00137511 37.87908327 33.25947329 28 43 C27.25621094 43.73089844 26.51242188 44.46179688 25.74609375 45.21484375 C9.90740536 61.85941452 4.94802408 82.88419723 3 105 C5.64 105 8.28 105 11 105 C11.495 111.93 11.495 111.93 12 119 C8.535 119.495 8.535 119.495 5 120 C9.22374366 142.27064838 20.53682281 163.08110797 39.29296875 176.41796875 C46.80142816 181.49932392 54.65071609 185.4633432 63 189 C62.734759 190.43854237 62.46233523 191.87575975 62.1875 193.3125 C61.96126953 194.51326172 61.96126953 194.51326172 61.73046875 195.73828125 C60.65660263 200.5333519 59.29291864 205.25929832 58 210 C38.86 210 19.72 210 0 210 C1.11945392 201.0443686 1.11945392 201.0443686 2.19140625 197.30078125 C6.29781251 182.39467477 8.49815987 170.34114073 1 156 C-4.73418593 146.97488996 -13.68031284 138.94803686 -24.36791992 136.44555664 C-26.88984046 136.01864773 -29.30971568 135.79891607 -31.86328125 135.68359375 C-32.74951172 135.64169922 -33.63574219 135.59980469 -34.54882812 135.55664062 C-35.46083984 135.51732422 -36.37285156 135.47800781 -37.3125 135.4375 C-38.70952148 135.37272461 -38.70952148 135.37272461 -40.13476562 135.30664062 C-42.42304454 135.20102775 -44.71142372 135.09892248 -47 135 C-50.88761129 116.25615987 -53.18364277 93.5509283 -47 75 C-45.91203125 74.96261719 -44.8240625 74.92523438 -43.703125 74.88671875 C-28.37975043 74.2516708 -14.86255603 72.40515126 -3.6875 60.875 C4.00783221 51.71537381 6.99113821 40.30877973 6.30029297 28.55175781 C5.32827278 20.29195703 2.78400996 12.18380489 0.55078125 4.19213867 C0 2 0 2 0 0 Z " fill="#FAAB41" transform="translate(163,151)"/>
<path d="M0 0 C1.02814316 0.00222061 2.05628632 0.00444122 3.11558533 0.00672913 C4.27671341 0.00680466 5.43784149 0.00688019 6.63415527 0.00695801 C8.52943214 0.01469994 8.52943214 0.01469994 10.46299744 0.02259827 C12.39193092 0.02472069 12.39193092 0.02472069 14.35983276 0.02688599 C17.78427561 0.03071034 21.20867628 0.0405399 24.63310242 0.05158997 C28.12522308 0.06180587 31.61735053 0.06638399 35.10948181 0.07142639 C41.96561897 0.08216225 48.82172806 0.09923767 55.67784119 0.12025452 C55.2157961 2.17687485 54.75026989 4.23271329 54.28330994 6.28822327 C54.02445007 7.43315247 53.76559021 8.57808167 53.49888611 9.75770569 C52.77926878 12.70486282 51.93868324 15.5531152 50.99034119 18.43275452 C47.59194852 30.83327243 48.9483236 43.60467234 55.18565369 54.83509827 C61.43975353 64.50713639 70.43670141 71.32167909 81.67784119 74.12025452 C88.64654371 74.93878801 95.66709303 75.07000885 102.67784119 75.12025452 C104.93044956 84.25383744 104.98557967 93.23977482 104.93858337 102.58119202 C104.92786219 105.11528956 104.93852985 107.64867842 104.95127869 110.18275452 C104.95753183 118.68953769 104.72828739 126.80637241 102.67784119 135.12025452 C101.37330994 135.14603577 100.06877869 135.17181702 98.72471619 135.19837952 C83.07751592 135.64488585 71.56699225 137.54719504 59.96690369 148.77650452 C51.83620456 157.52629241 49.04716463 167.41454009 49.24424744 179.11244202 C49.75709743 188.24605617 52.6607848 197.18080353 55.12705994 205.94398499 C55.67784119 208.12025452 55.67784119 208.12025452 55.67784119 210.12025452 C36.53784119 210.12025452 17.39784119 210.12025452 -2.32215881 210.12025452 C-6.82215881 195.49525452 -6.82215881 195.49525452 -7.32215881 189.12025452 C-6.11301819 188.5981842 -4.90387756 188.07611389 -3.65809631 187.53822327 C19.10211156 177.42646476 34.51420217 163.11349518 44.67784119 140.12025452 C49.13804471 128.50856319 51.02278745 116.89207592 50.86534119 104.49525452 C50.86469666 103.52330139 50.86405212 102.55134827 50.86338806 101.54994202 C50.80806615 92.403386 50.06247082 84.12039685 47.11534119 75.43275452 C46.85213074 74.65601379 46.58892029 73.87927307 46.31773376 73.07899475 C38.51279717 51.03846863 23.16881455 34.86023595 2.67784119 24.12025452 C-0.61220473 22.61634872 -3.91021725 21.31237328 -7.32215881 20.12025452 C-6.68242366 16.97314878 -6.03435383 13.82781793 -5.38465881 10.68275452 C-5.1110553 9.33600647 -5.1110553 9.33600647 -4.83192444 7.96205139 C-4.65467834 7.10804749 -4.47743225 6.25404358 -4.29481506 5.37416077 C-4.13247375 4.58340149 -3.97013245 3.79264221 -3.8028717 2.97792053 C-3.09631897 0.24751945 -2.87300604 0.1487805 0 0 Z " fill="#F9AB41" transform="translate(293.32215881347656,150.87974548339844)"/>
<path d="M0 0 C2.85592733 3.4813448 5.447629 7.0484833 7.94140625 10.796875 C8.30542542 11.34292892 8.66944458 11.88898285 9.04449463 12.45158386 C10.21963609 14.2160921 11.39122533 15.98292311 12.5625 17.75 C13.37908316 18.97864169 14.19573402 20.20723839 15.01245117 21.43579102 C20.60415241 29.85584425 26.13087234 38.31582029 31.59472656 46.81933594 C34.44521474 51.24264387 37.31811514 55.65143725 40.1875 60.0625 C40.76540283 60.95122803 41.34330566 61.83995605 41.9387207 62.75561523 C43.29230954 64.83718808 44.64606819 66.91865023 46 69 C46.86625 68.7834375 46.86625 68.7834375 47.75 68.5625 C49.83333333 68.04166667 51.91666667 67.52083333 54 67 C56.64 70.96 59.28 74.92 62 79 C59 82 59 82 57 83 C57.61519655 87.19647289 59.99671915 90.35056823 62.3046875 93.79296875 C62.74026474 94.45255081 63.17584198 95.11213287 63.62461853 95.79170227 C65.03628132 97.92708335 66.45561659 100.05724492 67.875 102.1875 C68.83875984 103.64281541 69.80189458 105.09854498 70.7644043 106.5546875 C72.65241162 109.41059693 74.54254995 112.2650765 76.43408203 115.11865234 C79.59357681 119.8909072 82.71230672 124.68903919 85.8125 129.5 C86.25513184 130.18602295 86.69776367 130.8720459 87.15380859 131.57885742 C88.10356766 133.05190893 89.05199505 134.525819 90 136 C85.6235371 136 82.84817815 133.52076203 79.32421875 131.1640625 C78.56735275 130.66580963 77.81048676 130.16755676 77.03068542 129.65420532 C75.45330818 128.61510464 73.87781333 127.57314125 72.30413818 126.52844238 C70.18754285 125.12440592 68.06553531 123.7292298 65.93994141 122.33886719 C61.89269095 119.69147443 57.85235239 117.03366354 53.8125 114.375 C52.30716522 113.38503592 50.80179312 112.3951286 49.29638672 111.40527344 C42.10579281 106.67673165 34.91699612 101.94545841 27.72799683 97.2144928 C24.49720525 95.08836912 21.26637297 92.96230731 18.03552246 90.83627319 C16.42994075 89.77970091 14.82439056 88.72308071 13.21887207 87.66641235 C1.90844287 80.2226918 -9.41271844 72.79559951 -20.74246216 65.38131714 C-29.52538173 59.63279305 -38.28688792 53.85388704 -47 48 C-43.89486075 44.7677821 -40.83626549 42.06558093 -37.125 39.5625 C-21.97036052 28.67648539 -10.71728031 15.08428599 0 0 Z " fill="#E4C600" transform="translate(388,341)"/>
<path d="M0 0 C2.91023596 1.40082867 5.63216946 2.96628064 8.359375 4.6953125 C9.64134766 5.50802612 9.64134766 5.50802612 10.94921875 6.3371582 C11.87347656 6.927146 12.79773438 7.51713379 13.75 8.125 C14.73097656 8.75043701 15.71195313 9.37587402 16.72265625 10.02026367 C24.5224998 15.01347673 32.23935367 20.12328299 39.93334961 25.27758789 C49.36060853 31.58882576 58.8323455 37.83108645 68.3125 44.0625 C69.11647217 44.59098541 69.92044434 45.11947083 70.7487793 45.66397095 C74.85252614 48.36129412 78.95668158 51.0579947 83.06103516 53.75439453 C87.1512664 56.44179915 91.24014005 59.13126035 95.32841492 61.82164001 C98.47072954 63.88948229 101.61343524 65.95672971 104.75619507 68.02389526 C106.22364662 68.98926981 107.69095792 69.95485759 109.15811157 70.92068481 C111.20911554 72.27073881 113.26078671 73.61977432 115.3125 74.96875 C116.27587532 75.60368629 116.27587532 75.60368629 117.25871277 76.25144958 C120.52046761 78.39570739 123.79737586 80.50986008 127.10546875 82.58203125 C128.08809692 83.20084167 128.08809692 83.20084167 129.09057617 83.83215332 C130.33556296 84.61399101 131.5842788 85.38993118 132.8371582 86.15905762 C134.25915805 87.05357507 135.63534654 88.02022146 137 89 C137 89.66 137 90.32 137 91 C134.96665054 92.53034697 132.92365018 93.95920646 130.8125 95.375 C114.72182861 106.53128097 101.73661601 120.68760514 91 137 C86.64152109 133.01847062 83.74147471 128.71489287 80.6875 123.6875 C76.11153607 116.30282616 71.40385563 109.02592546 66.5625 101.8125 C61.80417459 94.7220309 57.08040262 87.61219237 52.4140625 80.4609375 C51.70137459 79.36977882 51.70137459 79.36977882 50.97428894 78.25657654 C49.07593798 75.34959249 47.17779028 72.44251177 45.28689575 69.53067017 C43.96911293 67.50147443 42.64702556 65.47514167 41.32421875 63.44921875 C40.93114532 62.84093231 40.5380719 62.23264587 40.13308716 61.60592651 C38.29736909 58.80199574 36.50960146 56.23856251 34 54 C33.401875 54.495 32.80375 54.99 32.1875 55.5 C30 57 30 57 27 57 C24.921875 54.515625 24.921875 54.515625 22.75 51.25 C22.02296875 50.18265625 21.2959375 49.1153125 20.546875 48.015625 C19 45 19 45 18.953125 42.734375 C20.45939656 40.23891018 22.28537157 39.83527029 25 39 C18.25034748 28.48982679 11.40340177 18.05222724 4.42138672 7.69458008 C3.84533691 6.83630615 3.26928711 5.97803223 2.67578125 5.09375 C2.15927002 4.32740234 1.64275879 3.56105469 1.1105957 2.77148438 C0 1 0 1 0 0 Z " fill="#E4C600" transform="translate(33,33)"/>
<path d="M0 0 C2.88060694 2.82152329 5.21827144 5.60997919 7.5 8.9375 C18.55468261 24.32775515 32.4927487 36.29686834 48 47 C44.5186552 49.85592733 40.9515167 52.447629 37.203125 54.94140625 C36.65122498 55.30918686 36.09932495 55.67696747 35.53070068 56.05589294 C34.36152853 56.83433837 33.19161279 57.61166801 32.02099609 58.38793945 C30.29483455 59.53276482 28.57103826 60.68107408 26.84765625 61.83007812 C19.7918699 66.52644747 12.69147485 71.15070936 5.57034302 75.74726868 C-1.82267151 80.52297932 -9.17576216 85.35855315 -16.52490234 90.20141602 C-18.95235329 91.80097153 -21.38039747 93.39962306 -23.80859375 94.99804688 C-27.18862749 97.22307817 -30.56850991 99.44833894 -33.94824219 101.67382812 C-41.21854021 106.46094495 -48.48994487 111.24637565 -55.76324463 116.02893066 C-57.22774753 116.99210497 -58.69206934 117.95555469 -60.15618896 118.91931152 C-69.40062569 125.00442749 -78.67752464 131.03507241 -88 137 C-88 133.3377585 -87.03740542 132.1353537 -85.0625 129.08203125 C-84.42368896 128.0883252 -83.78487793 127.09461914 -83.12670898 126.07080078 C-82.07398804 124.45794189 -82.07398804 124.45794189 -81 122.8125 C-80.26531712 121.67717238 -79.53102974 120.54158872 -78.79711914 119.40576172 C-73.43266866 111.12245439 -67.97267316 102.90283931 -62.48071289 94.70361328 C-56.58362583 85.89708991 -50.75379662 77.04752407 -44.9375 68.1875 C-44.45567261 67.45368103 -43.97384521 66.71986206 -43.47741699 65.96380615 C-40.99937188 62.18960835 -38.52192465 58.41501868 -36.04492188 54.64013672 C-31.42038884 47.5925108 -26.7937794 40.54624954 -22.165802 33.50088501 C-20.73955413 31.32925841 -19.31396105 29.15720312 -17.88842773 26.98510742 C-11.96482053 17.96372719 -5.99825226 8.97191754 0 0 Z " fill="#FBE11C" transform="translate(123,341)"/>
<path d="M0 0 C0 4.27050178 -2.33662362 6.79033542 -4.6875 10.1875 C-5.80097535 11.82710993 -6.91282553 13.46782418 -8.0234375 15.109375 C-8.96654785 16.5005957 -8.96654785 16.5005957 -9.92871094 17.91992188 C-13.49373536 23.22123588 -16.98814332 28.56876956 -20.48739624 33.91363525 C-22.29366432 36.67239453 -24.10186934 39.42988212 -25.91001892 42.18740845 C-26.84732857 43.61685756 -27.78455303 45.04636254 -28.72169495 46.47592163 C-33.45671596 53.69851132 -38.19909511 60.91625784 -42.94265747 68.13323975 C-44.37523614 70.31285929 -45.80763442 72.49259728 -47.23999023 74.67236328 C-51.71825866 81.48712164 -56.19764578 88.30114036 -60.67977905 95.11335754 C-62.74825798 98.2573225 -64.81619964 101.40164068 -66.88409424 104.54598999 C-67.85839441 106.02714403 -68.83295208 107.50812872 -69.80780029 108.98892212 C-75.93025011 118.28903097 -81.9994161 127.62075858 -88 137 C-91.98963567 135.67012144 -93.20626754 133.09995255 -95.4375 129.75 C-106.33363785 113.976176 -120.07978183 101.55525437 -136 91 C-131.97617722 86.58497223 -127.58490741 83.65595795 -122.5 80.5625 C-115.75590217 76.37973818 -109.08725305 72.11321811 -102.5 67.6875 C-93.09822784 61.38258172 -83.65010849 55.1505374 -74.1875 48.9375 C-73.44108246 48.44727356 -72.69466492 47.95704712 -71.92562866 47.45196533 C-63.77883418 42.10158018 -55.62883368 36.75609849 -47.4765625 31.4140625 C-44.75506351 29.63042919 -42.03371352 27.84656881 -39.3125 26.0625 C-38.65655853 25.63247681 -38.00061707 25.20245361 -37.32479858 24.75939941 C-24.83929628 16.57174013 -12.40521289 8.30884867 0 0 Z " fill="#E4C600" transform="translate(478,33)"/>
<path d="M0 0 C0.33 0.66 0.66 1.32 1 2 C-16.16 2 -33.32 2 -51 2 C-51.66 5.63 -52.32 9.26 -53 13 C-53.40521425 14.82202207 -53.82779728 16.64057356 -54.2890625 18.44921875 C-54.58611084 19.6261731 -54.58611084 19.6261731 -54.88916016 20.8269043 C-55.25340088 22.24289917 -55.25340088 22.24289917 -55.625 23.6875 C-56.800625 28.2971875 -56.800625 28.2971875 -58 33 C-68.56 33 -79.12 33 -90 33 C-91.155 28.6275 -92.31 24.255 -93.5 19.75 C-93.86544922 18.37682617 -94.23089844 17.00365234 -94.60742188 15.58886719 C-94.89166016 14.50250977 -95.17589844 13.41615234 -95.46875 12.296875 C-95.76201172 11.18666992 -96.05527344 10.07646484 -96.35742188 8.93261719 C-97 6 -97 6 -97 2 C-114.16 2 -131.32 2 -149 2 C-144.49206349 -2.50793651 -144.49206349 -2.50793651 -140.98046875 -4.18359375 C-139.82925537 -4.73539307 -139.82925537 -4.73539307 -138.65478516 -5.29833984 C-137.84058105 -5.6742627 -137.02637695 -6.05018555 -136.1875 -6.4375 C-135.3423584 -6.83146973 -134.4972168 -7.22543945 -133.62646484 -7.63134766 C-91.59648676 -26.85251909 -39.35810564 -25.41448357 0 0 Z " fill="#F9AB41" transform="translate(330,133)"/>
<path d="M0 0 C10.23 0 20.46 0 31 0 C34.38087177 9.01565806 34.38087177 9.01565806 35.38671875 13.015625 C35.60263672 13.87414062 35.81855469 14.73265625 36.04101562 15.6171875 C36.25435547 16.48601562 36.46769531 17.35484375 36.6875 18.25 C37.02491211 19.57644531 37.02491211 19.57644531 37.36914062 20.9296875 C37.6872168 22.20972656 37.6872168 22.20972656 38.01171875 23.515625 C38.20209717 24.28165039 38.39247559 25.04767578 38.58862305 25.83691406 C39 28 39 28 39 32 C56.16 32 73.32 32 91 32 C73.28918227 49.71081773 39.35931641 54.31247273 15.75 54.4375 C-10.93247297 54.13813951 -36.39661215 47.55521187 -59 33 C-59 32.67 -59 32.34 -59 32 C-41.84 32 -24.68 32 -7 32 C-6.34 28.37 -5.68 24.74 -5 21 C-4.5909717 19.10609708 -4.16674209 17.21522391 -3.7109375 15.33203125 C-3.51290527 14.50678955 -3.31487305 13.68154785 -3.11083984 12.83129883 C-2.8680127 11.83509521 -2.62518555 10.8388916 -2.375 9.8125 C-1.59125 6.574375 -0.8075 3.33625 0 0 Z " fill="#F9AB41" transform="translate(240,344)"/>
<path d="M0 0 C1.35091995 4.05275986 0.39212275 7.40867867 -0.375 11.5 C-1.64199619 18.35116457 -2.36495512 25.01450627 -3 32 C-10.59 32 -18.18 32 -26 32 C-26 36.95 -26 41.9 -26 47 C-18.41 47 -10.82 47 -3 47 C-2.79503906 48.72347656 -2.59007813 50.44695312 -2.37890625 52.22265625 C-2.1068131 54.50260921 -1.83467533 56.78255685 -1.5625 59.0625 C-1.36043945 60.7630957 -1.36043945 60.7630957 -1.15429688 62.49804688 C-0.49558909 68.0086998 0.17943397 73.5109709 1 79 C-11.22154294 73.66169625 -23.21315868 67.96530547 -35.11914062 61.95605469 C-43.44506009 57.75875115 -51.82817379 53.69834955 -60.24951172 49.6965332 C-66.87577741 46.54596474 -73.46259333 43.33196856 -80 40 C-77.82857731 37.6112646 -75.82629098 36.25528321 -72.90625 34.8984375 C-72.05836914 34.49931152 -71.21048828 34.10018555 -70.33691406 33.68896484 C-68.9326416 33.03855225 -68.9326416 33.03855225 -67.5 32.375 C-65.42124167 31.3971786 -63.34316176 30.41791413 -61.265625 29.4375 C-60.11642578 28.89609375 -58.96722656 28.3546875 -57.78320312 27.796875 C-51.34314791 24.74842892 -44.94502995 21.61253024 -38.54019165 18.49099731 C-25.73022848 12.24877541 -12.90360779 6.04695105 0 0 Z " fill="#F9EB8C" transform="translate(102,216)"/>
<path d="M0 0 C2.66900751 1.16151253 5.33507531 2.32918063 8 3.5 C8.72445313 3.81453125 9.44890625 4.1290625 10.1953125 4.453125 C16.02775772 7.0233551 21.7274157 9.83533744 27.41870117 12.7008667 C32.86378846 15.44021229 38.33167381 18.12979466 43.8125 20.796875 C45.06281006 21.40535278 45.06281006 21.40535278 46.33837891 22.02612305 C48.89194072 23.26805812 51.44592665 24.50911732 54 25.75 C56.59220765 27.01001347 59.18428582 28.27029163 61.77612305 29.53106689 C63.36980399 30.30624255 64.96370016 31.08097598 66.55786133 31.85516357 C71.3886163 34.20416692 76.19929715 36.59014492 81 39 C79.71157584 41.57684831 78.62423636 41.83134728 76.03125 43.0390625 C75.16693359 43.44640625 74.30261719 43.85375 73.41210938 44.2734375 C72.45111328 44.71945312 71.49011719 45.16546875 70.5 45.625 C68.39530967 46.61607619 66.29117597 47.60833502 64.1875 48.6015625 C63.03765625 49.14329102 61.8878125 49.68501953 60.703125 50.24316406 C54.65414667 53.1043535 48.64122393 56.04054421 42.62374878 58.96722412 C28.77601195 65.70135799 14.90314381 72.38088063 1 79 C-0.03238654 75.90284039 0.01509448 74.7701766 0.5234375 71.6484375 C0.6575 70.79636719 0.7915625 69.94429688 0.9296875 69.06640625 C1.07664062 68.17824219 1.22359375 67.29007812 1.375 66.375 C1.65536724 64.6330887 1.93402422 62.89090122 2.2109375 61.1484375 C2.33774902 60.37677246 2.46456055 59.60510742 2.59521484 58.81005859 C3.16045254 54.88612261 3.56220108 50.94019027 4 47 C11.59 47 19.18 47 27 47 C27 42.05 27 37.1 27 32 C19.41 32 11.82 32 4 32 C3.79503906 30.27652344 3.59007812 28.55304688 3.37890625 26.77734375 C3.1068131 24.49739079 2.83467533 22.21744315 2.5625 19.9375 C2.42779297 18.80376953 2.29308594 17.67003906 2.15429688 16.50195312 C1.49558909 10.9913002 0.82056603 5.4890291 0 0 Z " fill="#FBEC8C" transform="translate(409,216)"/>
<path d="M0 0 C20.13 0 40.26 0 61 0 C61 0.33 61 0.66 61 1 C41.86 1 22.72 1 3 1 C3 30.70371432 7.01867954 53.34856822 27.515625 74.609375 C32.86384147 79.62122565 38.56564001 83.50901745 45 87 C45.06058594 86.21753906 45.12117188 85.43507813 45.18359375 84.62890625 C45.30927734 83.11103516 45.30927734 83.11103516 45.4375 81.5625 C45.55931641 80.04849609 45.55931641 80.04849609 45.68359375 78.50390625 C46 76 46 76 47 75 C48.41225046 74.9071274 49.82908934 74.88253228 51.24438477 74.88647461 C52.59567223 74.88658791 52.59567223 74.88658791 53.97425842 74.88670349 C54.95341721 74.89186478 55.93257599 74.89702606 56.94140625 74.90234375 C57.93881332 74.9037587 58.9362204 74.90517365 59.96385193 74.90663147 C63.16343124 74.91224886 66.36294169 74.92480429 69.5625 74.9375 C71.72591045 74.94251276 73.88932199 74.94707605 76.05273438 74.95117188 C81.36851629 74.96222394 86.68424646 74.97950021 92 75 C92 80.28 92 85.56 92 91 C79.79 91.33 67.58 91.66 55 92 C66.69253769 95.819026 66.69253769 95.819026 78.64453125 97.1328125 C79.90813477 97.13474609 79.90813477 97.13474609 81.19726562 97.13671875 C82.49180664 97.13091797 82.49180664 97.13091797 83.8125 97.125 C84.66392578 97.12886719 85.51535156 97.13273437 86.39257812 97.13671875 C92.00306814 97.12817269 97.43429296 96.70907896 103 96 C90.8684886 106.06657329 70.9618862 106.14888011 56 105 C37.96757324 102.69724196 21.94313337 93.05055771 10.75 78.8125 C3.07189141 68.59402833 -1.70327532 57.32688359 -5 45 C-7.31 45 -9.62 45 -12 45 C-13.38226016 42.23547967 -13.09525387 39.9538637 -13.0625 36.875 C-13.05347656 35.77929688 -13.04445312 34.68359375 -13.03515625 33.5546875 C-13.02355469 32.71164062 -13.01195312 31.86859375 -13 31 C-15.64 31 -18.28 31 -21 31 C-21 30.67 -21 30.34 -21 30 C-16.05 30 -11.1 30 -6 30 C-5.9175 27.6075 -5.835 25.215 -5.75 22.75 C-5.34856595 14.66326032 -3.64697043 7.29394086 0 0 Z " fill="#E78D03" transform="translate(187,225)"/>
<path d="M0 0 C0.58700684 0.12552246 1.17401367 0.25104492 1.77880859 0.38037109 C8.36476667 1.74809502 14.95731526 2.75229831 21.625 3.625 C25.04875 4.07875 28.4725 4.5325 32 5 C32 12.59 32 20.18 32 28 C37.28 28 42.56 28 48 28 C48 20.41 48 12.82 48 5 C50.74375725 3.62812137 53.12147081 3.77050647 56.1875 3.625 C63.98204318 3.13228794 71.38029364 1.69682537 79 0 C77.67444672 4.22828226 76.0712789 8.14017301 74.12890625 12.12109375 C73.56018799 13.2920459 72.99146973 14.46299805 72.40551758 15.66943359 C71.79118183 16.92545741 71.17684256 18.18147951 70.5625 19.4375 C69.92754073 20.74278843 69.29302444 22.04829244 68.65893555 23.35400391 C67.69572054 25.33740391 66.73228863 27.3206939 65.76753235 29.30334473 C62.92363862 35.14839526 60.1120151 41.00856571 57.3125 46.875 C56.87905273 47.7825 56.44560547 48.69 55.99902344 49.625 C55.12417094 51.45678348 54.24949666 53.28865209 53.375 55.12060547 C50.85672938 60.39412886 48.33429308 65.6656604 45.8125 70.9375 C44.88149391 72.88410669 43.95050271 74.8307205 43.01953125 76.77734375 C42.34635417 78.18489583 41.67317708 79.59244792 41 81 C40.34 81 39.68 81 39 81 C8.89927699 19.56338951 8.89927699 19.56338951 0 0 Z " fill="#FBEC8D" transform="translate(216,408)"/>
<path d="M0 0 C0.66 0 1.32 0 2 0 C5.36063491 6.84122344 8.71936225 13.68338117 12.0769043 20.52612305 C13.21385854 22.84273329 14.35121341 25.15914696 15.48901367 27.4753418 C21.4292759 39.56848722 27.3529268 51.66968561 33.19921875 63.80859375 C33.88465508 65.22254173 33.88465508 65.22254173 34.5839386 66.66505432 C36.68589602 71.04746352 38.61525745 75.32510529 40 80 C29.63948071 78.82095785 19.31693287 77.52039011 9 76 C9 68.41 9 60.82 9 53 C3.72 53 -1.56 53 -7 53 C-7 60.59 -7 68.18 -7 76 C-10.25875 76.474375 -13.5175 76.94875 -16.875 77.4375 C-17.88030762 77.58501709 -18.88561523 77.73253418 -19.92138672 77.88452148 C-25.9356818 78.75148382 -31.94871872 79.44816394 -38 80 C-33.9979617 69.730044 -29.14150144 59.90523082 -24.27355957 50.02584839 C-21.91765173 45.24458103 -19.57286618 40.45786059 -17.2265625 35.671875 C-16.76971069 34.74080429 -16.31285889 33.80973358 -15.84216309 32.85044861 C-11.08674872 23.1528062 -6.41508248 13.41651416 -1.79003906 3.65600586 C-1.20577892 2.4313345 -0.6068245 1.213649 0 0 Z " fill="#FCED8C" transform="translate(255,22)"/>
<path d="M0 0 C4.35050103 1.50563337 6.17318877 4.7833094 8.52734375 8.4921875 C9.16613968 9.47350143 9.16613968 9.47350143 9.81784058 10.47463989 C11.20001154 12.6024454 12.5687708 14.73852858 13.9375 16.875 C14.88087687 18.33259968 15.82513441 19.78962974 16.77026367 21.24609375 C18.64774193 24.14231405 20.52012392 27.04171776 22.38769531 29.94433594 C25.28092654 34.44014253 28.19774997 38.92025084 31.11743164 43.39892578 C33.41770596 46.92868562 35.70927442 50.4640377 38 54 C38.5775 53.855625 39.155 53.71125 39.75 53.5625 C41.83333333 53.04166667 43.91666667 52.52083333 46 52 C49.96 57.94 49.96 57.94 54 64 C51 67 51 67 49 68 C49.62742983 71.29830247 50.8217484 73.50511322 52.72265625 76.2578125 C53.26083984 77.04800781 53.79902344 77.83820313 54.35351562 78.65234375 C54.91748047 79.46832031 55.48144531 80.28429687 56.0625 81.125 C57.18253568 82.74975096 58.29863469 84.37722505 59.41015625 86.0078125 C59.90652588 86.72598145 60.40289551 87.44415039 60.91430664 88.18408203 C62 90 62 90 62 92 C57.69585269 90.48466142 54.0679855 88.2407273 50.296875 85.72265625 C49.63805832 85.28807602 48.97924164 84.85349579 48.30046082 84.40574646 C46.11416029 82.96220406 43.93210594 81.51237367 41.75 80.0625 C40.21196187 79.04513141 38.67362569 78.0282133 37.13500977 77.01171875 C33.83959128 74.83404491 30.54565796 72.65414658 27.25244141 70.47314453 C21.81553144 66.87497716 16.36754449 63.29378908 10.91796875 59.71484375 C9.06996575 58.50060197 7.22198384 57.2863281 5.37402344 56.07202148 C2.67693735 54.29976148 -0.02028554 52.527713 -2.71813965 50.75662231 C-20.81150565 38.87501151 -20.81150565 38.87501151 -29 33 C-24.97942847 28.14329597 -20.71989707 23.68917049 -16.1875 19.3125 C-10.06604054 13.31447671 -4.87782849 7.04575226 0 0 Z " fill="#FBE11C" transform="translate(396,356)"/>
<path d="M0 0 C-1.62700485 4.745191 -4.21182241 8.63998025 -6.95703125 12.79296875 C-7.44605423 13.54039841 -7.93507721 14.28782806 -8.43891907 15.0579071 C-9.45754416 16.61373527 -10.47810756 18.16829602 -11.50054932 19.72161865 C-12.89454034 21.83975643 -14.2831993 23.96125304 -15.66943359 26.08447266 C-18.33505673 30.16513435 -21.01022076 34.23947888 -23.6875 38.3125 C-24.16591339 39.04070953 -24.64432678 39.76891907 -25.13723755 40.51919556 C-36.67133091 58.07058243 -48.32696061 75.54082925 -60 93 C-63.55541401 89.4859968 -66.83452574 85.8635322 -70 82 C-75.90757442 74.89322088 -82.38673903 68.44417191 -89 62 C-90.00131511 61.00131685 -91.00165304 60.00165031 -92 59 C-81.98880619 52.30720315 -71.94739485 45.66278324 -61.875 39.0625 C-60.49037273 38.15465961 -59.10577038 37.24678123 -57.72119141 36.33886719 C-54.88465472 34.4790018 -52.04787791 32.61950342 -49.2109375 30.76025391 C-45.78558115 28.51522748 -42.3610884 26.26888846 -38.9369812 24.0219574 C-36.36111289 22.33175724 -33.78487607 20.64211938 -31.20855713 18.9526062 C-30.01291268 18.1683986 -28.81739082 17.38400406 -27.62200928 16.59939575 C-24.32312944 14.43433974 -21.02114231 12.2741456 -17.71520996 10.11987305 C-16.50673658 9.330852 -15.29958112 8.53981058 -14.09338379 7.74731445 C-12.16136212 6.47832013 -10.22558215 5.21524149 -8.2890625 3.953125 C-7.68967865 3.55760437 -7.0902948 3.16208374 -6.4727478 2.75457764 C-2.22756158 0 -2.22756158 0 0 0 Z " fill="#FBE11C" transform="translate(458,64)"/>
<path d="M0 0 C3.6315347 1.34267056 6.75218059 2.9723732 10.0078125 5.0625 C10.97952393 5.68447266 11.95123535 6.30644531 12.95239258 6.94726562 C14.52283325 7.96336914 14.52283325 7.96336914 16.125 9 C17.23319092 9.71349609 18.34138184 10.42699219 19.4831543 11.16210938 C30.14081743 18.03813056 40.69246611 25.07303266 51.22773743 32.13473511 C58.87932457 37.26247815 66.54622652 42.36726317 74.21127319 47.47485352 C78.16597998 50.11025246 82.12008277 52.74655724 86.07421875 55.3828125 C87.42406929 56.28271931 88.77392249 57.18262213 90.1237793 58.08251953 C91.07293213 58.71528809 92.02208496 59.34805664 93 60 C89.51842274 63.52252839 85.96146369 66.74139989 82.125 69.875 C75.98126379 74.95479243 70.37904972 80.48606211 64.85009766 86.22412109 C64.24601074 86.84496582 63.64192383 87.46581055 63.01953125 88.10546875 C62.48432861 88.66387451 61.94912598 89.22228027 61.39770508 89.79760742 C60 91 60 91 58 91 C56.53533189 88.86271606 55.19721828 86.72442211 53.875 84.5 C49.63977888 77.55408035 45.22152852 70.75436147 40.6875 64 C31.47135064 50.2455023 22.38698499 36.40616838 13.32421875 22.55029297 C11.2944857 19.44791737 9.25735629 16.3504596 7.21875 13.25390625 C6.20803255 11.71113451 5.19758303 10.16818718 4.1875 8.625 C3.5217395 7.6186853 3.5217395 7.6186853 2.8425293 6.59204102 C0 2.2286906 0 2.2286906 0 0 Z " fill="#FBE11C" transform="translate(64,54)"/>
<path d="M0 0 C4.24373358 3.75150581 8.28358683 7.72580057 12 12 C12 12.66 12 13.32 12 14 C-26.94 14 -65.88 14 -106 14 C-98.8021037 -0.39579261 -83.47678381 -7.89697678 -68.9296875 -13.09765625 C-45.91014828 -19.55875407 -18.8827986 -14.52121165 0 0 Z " fill="#FAAB41" transform="translate(303,196)"/>
<path d="M0 0 C2.82122187 2.76011237 5.10317352 5.43217726 7.25 8.75 C8.03117187 9.94882812 8.03117187 9.94882812 8.828125 11.171875 C9.21484375 11.77515625 9.6015625 12.3784375 10 13 C9.44828125 13.48984375 8.8965625 13.9796875 8.328125 14.484375 C5.27206989 17.78655535 3.09187454 21.42160945 0.75 25.25 C-3.77353721 32.523234 -8.41563913 39.69981889 -13.1875 46.8125 C-20.45065324 57.65166525 -27.64173168 68.53702189 -34.8125 79.4375 C-35.33621185 80.23298248 -35.85992371 81.02846497 -36.39950562 81.84805298 C-38.93872116 85.7052487 -41.47434517 89.56470535 -44.00244141 93.42919922 C-46.06825313 96.5865597 -48.15133427 99.73173133 -50.24365234 102.87158203 C-51.27069599 104.42598245 -52.29755837 105.98050266 -53.32421875 107.53515625 C-53.81026077 108.25763046 -54.2963028 108.98010468 -54.79707336 109.72447205 C-55.92643121 111.44399691 -56.97256579 113.21769984 -58 115 C-57.505 115.99 -57.505 115.99 -57 117 C-67.32147238 123.68521516 -77.65093415 130.35757263 -88 137 C-88 133.3377585 -87.03740542 132.1353537 -85.0625 129.08203125 C-84.42368896 128.0883252 -83.78487793 127.09461914 -83.12670898 126.07080078 C-82.07398804 124.45794189 -82.07398804 124.45794189 -81 122.8125 C-80.26531712 121.67717238 -79.53102974 120.54158872 -78.79711914 119.40576172 C-73.43266866 111.12245439 -67.97267316 102.90283931 -62.48071289 94.70361328 C-56.58362583 85.89708991 -50.75379662 77.04752407 -44.9375 68.1875 C-44.45567261 67.45368103 -43.97384521 66.71986206 -43.47741699 65.96380615 C-40.99937188 62.18960835 -38.52192465 58.41501868 -36.04492188 54.64013672 C-31.42038884 47.5925108 -26.7937794 40.54624954 -22.165802 33.50088501 C-20.73955413 31.32925841 -19.31396105 29.15720312 -17.88842773 26.98510742 C-11.96482053 17.96372719 -5.99825226 8.97191754 0 0 Z " fill="#E4C600" transform="translate(123,341)"/>
<path d="M0 0 C0.66 0 1.32 0 2 0 C3.23399963 2.19712129 4.43610257 4.40363901 5.625 6.625 C5.975625 7.24246094 6.32625 7.85992188 6.6875 8.49609375 C8.25021415 11.46525064 9.16647505 13.30575264 8.36914062 16.63085938 C6.57795396 21.03855838 4.5340224 25.2891116 2.4296875 29.5546875 C1.9885965 30.45623566 1.54750549 31.35778381 1.0930481 32.28665161 C-0.3094473 35.15117571 -1.71714175 38.01310845 -3.125 40.875 C-4.07977192 42.82274767 -5.0342028 44.77066255 -5.98828125 46.71875 C-8.32157448 51.4811104 -10.6591357 56.24135688 -13 61 C-11.02 61.33 -9.04 61.66 -7 62 C-7 66.62 -7 71.24 -7 76 C-10.29129023 76.48187398 -13.58299436 76.96055848 -16.875 77.4375 C-17.7928125 77.57220703 -18.710625 77.70691406 -19.65625 77.84570312 C-25.75914396 78.72675472 -31.8593324 79.44001251 -38 80 C-33.9979617 69.730044 -29.14150144 59.90523082 -24.27355957 50.02584839 C-21.91765173 45.24458103 -19.57286618 40.45786059 -17.2265625 35.671875 C-16.76971069 34.74080429 -16.31285889 33.80973358 -15.84216309 32.85044861 C-11.08674872 23.1528062 -6.41508248 13.41651416 -1.79003906 3.65600586 C-1.20577892 2.4313345 -0.6068245 1.213649 0 0 Z " fill="#F9E01D" transform="translate(255,22)"/>
<path d="M0 0 C0.94609131 0.48210937 1.89218262 0.96421875 2.86694336 1.4609375 C4.37333374 2.24210938 4.37333374 2.24210938 5.91015625 3.0390625 C8.0551187 4.1319193 10.20097652 5.22302029 12.34765625 6.3125 C13.44207031 6.86905273 14.53648438 7.42560547 15.6640625 7.99902344 C20.87956993 10.62371062 26.14024908 13.15079531 31.41015625 15.6640625 C32.33755615 16.1079834 33.26495605 16.5519043 34.22045898 17.00927734 C39.76579727 19.65164288 45.34542996 22.2009147 50.97265625 24.6640625 C51.63265625 24.0040625 52.29265625 23.3440625 52.97265625 22.6640625 C53.50372939 25.41244099 54.02281506 28.16218625 54.53515625 30.9140625 C54.68662109 31.69136719 54.83808594 32.46867187 54.99414062 33.26953125 C55.13271484 34.02363281 55.27128906 34.77773438 55.4140625 35.5546875 C55.54498291 36.24594727 55.67590332 36.93720703 55.81079102 37.64941406 C55.99021197 39.88256899 55.55714952 41.51673026 54.97265625 43.6640625 C54.45996689 43.41287155 53.94727753 43.1616806 53.41905212 42.90287781 C23.64787178 28.28709695 23.64787178 28.28709695 -6.23681641 13.90576172 C-12.54238128 10.90663588 -18.80593848 7.83497228 -25.02734375 4.6640625 C-22.59261619 1.89547598 -20.03719835 0.47644226 -16.71484375 -1.0859375 C-15.79058594 -1.53453125 -14.86632812 -1.983125 -13.9140625 -2.4453125 C-8.7977775 -4.0238145 -4.61118816 -2.38167666 0 0 Z " fill="#F9DF1D" transform="translate(47.02734375,251.3359375)"/>
<path d="M0 0 C0.64066406 0.13277344 1.28132812 0.26554687 1.94140625 0.40234375 C2.80636719 0.57894531 3.67132813 0.75554687 4.5625 0.9375 C5.40941406 1.11152344 6.25632813 1.28554688 7.12890625 1.46484375 C10.10537515 2.0854988 10.10537515 2.0854988 13.60546875 2.18359375 C17 3 17 3 19.046875 5.5703125 C19.60890625 6.74335938 20.1709375 7.91640625 20.75 9.125 C21.07452148 9.78387207 21.39904297 10.44274414 21.73339844 11.12158203 C22.84825521 13.40272652 23.92317332 15.70068001 25 18 C25.84161658 19.74582174 26.68546051 21.49057107 27.53125 23.234375 C28.9111533 26.08283601 30.27783165 28.93488445 31.61181641 31.80517578 C34.10249191 37.15677411 36.7225531 42.36196641 39.6171875 47.5078125 C48.93250305 64.49478871 48.93250305 64.49478871 47.1953125 70.91015625 C45.65220633 74.70408968 43.57641545 77.831009 41 81 C40.34 81 39.68 81 39 81 C8.89927699 19.56338951 8.89927699 19.56338951 0 0 Z " fill="#F9DF1D" transform="translate(216,408)"/>
<path d="M0 0 C5.0757064 5.0757064 6.26078555 16.28163896 6.5625 23.3125 C6.26609187 31.45823455 2.34620627 38.02766147 -3 44 C-11.02897814 49.65092966 -18.36092964 50.83953193 -28 50 C-27.40338112 45.11376692 -25.92537165 40.90450518 -23.9375 36.4375 C-23.62731934 35.73786133 -23.31713867 35.03822266 -22.99755859 34.31738281 C-17.46595007 22.16054771 -9.8111305 9.22308167 0 0 Z " fill="#F8AA3F" transform="translate(149,161)"/>
<path d="M0 0 C10.92493078 7.84608665 17.52017305 21.35467129 23.1875 33.1875 C23.65687988 34.1669458 24.12625977 35.1463916 24.60986328 36.15551758 C26.73779127 40.75093654 28.5618187 44.8878848 29 50 C13.75224692 50.77095381 13.75224692 50.77095381 7 46 C5.96875 45.34 4.9375 44.68 3.875 44 C-1.11123013 39.53431038 -4.27446935 32.79804301 -5.515625 26.30078125 C-5.89067543 17.33975496 -2.8009188 8.40275641 0 0 Z " fill="#F7AA40" transform="translate(362,161)"/>
<path d="M0 0 C-5.19530483 16.4735545 -14.08673248 39.05782165 -29 49 C-37.16373697 26.28731751 -37.16373697 26.28731751 -32 14.625 C-28.45675743 8.46936672 -22.94230829 3.00872613 -16.20703125 0.421875 C-10.89365254 -0.59377969 -5.38095728 -0.20150603 0 0 Z " fill="#F7A940" transform="translate(391,301)"/>
<path d="M0 0 C15.18195974 -0.76762718 15.18195974 -0.76762718 22 4 C22.86625 4.53625 23.7325 5.0725 24.625 5.625 C29.82458778 10.82458778 34.07126502 17.78441213 34.3125 25.25 C34.25494647 33.04274764 32.34352615 42.48471077 28 49 C16.16880217 37.10270609 2.21401666 16.99683562 0 0 Z " fill="#F39300" transform="translate(121,301)"/>
<path d="M0 0 C4.12461681 -0.14688806 8.24854924 -0.23460044 12.375 -0.3125 C14.10943359 -0.3753418 14.10943359 -0.3753418 15.87890625 -0.43945312 C22.86838837 -0.53817462 27.65135107 0.21599739 33.72998047 3.70141602 C37.11951172 5.64042621 40.6902751 6.86650324 44.375 8.125 C45.10686523 8.37797852 45.83873047 8.63095703 46.59277344 8.89160156 C63.26803323 14.55724222 79.31570763 16.30974549 96.8125 16.125 C98.4876248 16.11494114 100.16275552 16.10582047 101.83789062 16.09765625 C105.89207629 16.07589355 109.9459706 16.04152737 114 16 C106.34986932 23.65013068 84.95962772 22.41699416 74.75 22.4375 C48.06373525 22.12785965 22.60885709 15.55873373 0 1 C0 0.67 0 0.34 0 0 Z " fill="#F19200" transform="translate(181,376)"/>
<path d="M0 0 C3.3 0 6.6 0 10 0 C9.96519531 1.5984375 9.93039063 3.196875 9.89453125 4.84375 C9.61525953 23.61541589 11.17105901 41.62108326 15 60 C10.05 60 5.1 60 0 60 C-3.88761129 41.25615987 -6.18364277 18.5509283 0 0 Z " fill="#F09100" transform="translate(116,226)"/>
<path d="M0 0 C14.52 0 29.04 0 44 0 C44 4.62 44 9.24 44 14 C29.48 14 14.96 14 0 14 C0 9.38 0 4.76 0 0 Z " fill="#000000" transform="translate(234,301)"/>
<path d="M0 0 C9.9 0 19.8 0 30 0 C30 4.95 30 9.9 30 15 C20.1 15 10.2 15 0 15 C0 10.05 0 5.1 0 0 Z " fill="#030201" transform="translate(280,241)"/>
<path d="M0 0 C9.9 0 19.8 0 30 0 C30 4.95 30 9.9 30 15 C20.1 15 10.2 15 0 15 C0 10.05 0 5.1 0 0 Z " fill="#020100" transform="translate(202,241)"/>
<path d="M0 0 C4.95 0 9.9 0 15 0 C15.09356927 4.35097128 15.08033712 8.65234404 15 13 C15.07541016 14.50046875 15.07541016 14.50046875 15.15234375 16.03125 C15.04364093 19.39631134 14.79739199 21.11882077 13 24 C7.86265005 27.63925261 1.85938857 29.81057108 -4 32 C-3.91435791 31.35039307 -3.82871582 30.70078613 -3.74047852 30.03149414 C-3.34688683 27.04195132 -2.95468514 24.05222765 -2.5625 21.0625 C-2.42779297 20.04091797 -2.29308594 19.01933594 -2.15429688 17.96679688 C-1.37056428 11.98366756 -0.64439593 5.99976404 0 0 Z " fill="#E3C601" transform="translate(413,263)"/>
<path d="M0 0 C8.91 3.96 8.91 3.96 18 8 C18.33 15.92 18.66 23.84 19 32 C14.05 32 9.1 32 4 32 C3.79503906 30.27652344 3.59007812 28.55304688 3.37890625 26.77734375 C3.1068131 24.49739079 2.83467533 22.21744315 2.5625 19.9375 C2.42779297 18.80376953 2.29308594 17.67003906 2.15429688 16.50195312 C2.02216797 15.39658203 1.89003906 14.29121094 1.75390625 13.15234375 C1.63345947 12.14163818 1.5130127 11.13093262 1.38891602 10.08959961 C0.96491309 6.72126501 0.48011366 3.36079564 0 0 Z " fill="#E2C500" transform="translate(409,216)"/>
<path d="M0 0 C4.01923329 -0.09569603 7.98400412 -0.09116903 12 0 C13.06347656 -0.01546875 14.12695312 -0.0309375 15.22265625 -0.046875 C18.65258352 0.14391741 20.91949679 0.44866745 24 2 C27.18875752 6.39196044 31 12.40589593 31 18 C20.63948071 16.82095785 10.31693287 15.52039011 0 14 C0 9.38 0 4.76 0 0 Z " fill="#F9DF1D" transform="translate(264,84)"/>
<path d="M0 0 C1 3 1 3 -0.40625 6.0546875 C-1.09955255 7.33064295 -1.79785277 8.60389024 -2.5 9.875 C-5.97521087 16.45745824 -8.62105181 23.11617226 -10.9375 30.1875 C-11.23140625 31.08388184 -11.5253125 31.98026367 -11.828125 32.90380859 C-13.11311772 36.92093334 -14.22191288 40.85004975 -15 45 C-17.64 45 -20.28 45 -23 45 C-22.40336239 40.11361354 -20.92489799 35.90479669 -18.9375 31.4375 C-18.62876953 30.73931152 -18.32003906 30.04112305 -18.00195312 29.32177734 C-13.22492116 18.80321248 -6.75019463 9.34480068 0 0 Z " fill="#EE9101" transform="translate(144,166)"/>
<path d="M0 0 C8.41874331 2.88642628 11.99027518 8.39928745 16 16 C17.00496852 19.01490557 17.10335303 21.04181692 17.0625 24.1875 C17.05347656 25.08855469 17.04445312 25.98960937 17.03515625 26.91796875 C17.02355469 27.60503906 17.01195312 28.29210937 17 29 C12.61890403 25.02004567 9.76360033 20.73250193 6.8125 15.625 C6.37486328 14.89539063 5.93722656 14.16578125 5.48632812 13.4140625 C2.9085579 9.00627218 1.17414647 4.97208394 0 0 Z " fill="#F3A63E" transform="translate(138,303)"/>
<path d="M0 0 C0.53109375 0.71671875 1.0621875 1.4334375 1.609375 2.171875 C4.24508522 5.28993742 7.07363018 7.71194374 10.25 10.25 C12.18958436 11.81068881 14.10173933 13.38826924 16 15 C16 15.33 16 15.66 16 16 C9.73 16 3.46 16 -3 16 C-2.28257809 10.26062468 -1.46550351 5.47121309 0 0 Z " fill="#EF9101" transform="translate(166,345)"/>
<path d="M0 0 C1 3 1 3 -0.625 6.5 C-2.57032465 9.71726768 -4.55603531 11.37368334 -8 13 C-6.53181332 9.89257577 -4.79975 7.09528261 -2.875 4.25 C-2.33617187 3.45078125 -1.79734375 2.6515625 -1.2421875 1.828125 C-0.62730469 0.92320312 -0.62730469 0.92320312 0 0 Z " fill="#E28902" transform="translate(144,166)"/>
</svg>
